<svg xmlns="http://www.w3.org/2000/svg" width="110.871" height="134.164" viewBox="0 0 110.871 134.164">
  <g id="Group_16" data-name="Group 16" transform="translate(0 0)">
    <path id="Path_25" data-name="Path 25" d="M350.257,83.488h-3.3V48.86h3.3V63.354a12.195,12.195,0,0,1,21.069,8.374V83.488h-3.3V71.729a8.886,8.886,0,1,0-17.772,0Z" transform="translate(-346.961 -48.86)" fill="#ff003d"/>
    <path id="Path_26" data-name="Path 26" d="M403.369,84.816h-3.3V81.209a12.2,12.2,0,1,1,3.3-8.374Zm-3.3-11.982a8.886,8.886,0,1,0-8.864,8.909,8.859,8.859,0,0,0,8.864-8.909" transform="translate(-350.563 -50.188)" fill="#ff003d"/>
    <path id="Path_27" data-name="Path 27" d="M400.731,110.77h3.341a12.16,12.16,0,1,1,0-3.3h-3.341a8.909,8.909,0,1,0,0,3.3" transform="translate(-350.652 -54.267)" fill="#ff003d"/>
    <rect id="Rectangle_8" data-name="Rectangle 8" width="3.297" height="23.875" transform="translate(58.594 42.961)" fill="#ff003d"/>
    <path id="Path_28" data-name="Path 28" d="M404.211,159.386h-3.3v-3.607a12.2,12.2,0,1,1,3.3-8.374Zm-3.3-11.982a8.887,8.887,0,1,0-8.865,8.909,8.859,8.859,0,0,0,8.865-8.909" transform="translate(-350.657 -58.57)" fill="#ff003d"/>
    <path id="Path_29" data-name="Path 29" d="M413.127,129.357h3.3v6.2H437.4v3.3H416.424v7.893a8.9,8.9,0,0,0,17.639,1.648h3.34a12.193,12.193,0,0,1-24.276-1.648Z" transform="translate(-354.398 -57.908)" fill="#ff003d"/>
    <path id="Path_30" data-name="Path 30" d="M399.979,196.7v-15.5a5.479,5.479,0,0,0-10.957.044V196.7h-3.3v-15.5a5.457,5.457,0,0,0-10.913.044V196.7h-3.3v-15.5a8.747,8.747,0,0,1,15.857-5.078,8.777,8.777,0,0,1,15.9,5.122V196.7Z" transform="translate(-349.721 -62.753)" fill="#ff003d"/>
    <path id="Path_31" data-name="Path 31" d="M437.442,196.706h-3.3V193.1a12.2,12.2,0,1,1,3.3-8.374Zm-3.3-11.982a8.886,8.886,0,1,0-8.864,8.909,8.859,8.859,0,0,0,8.864-8.909" transform="translate(-354.393 -62.765)" fill="#ff003d"/>
    <path id="Path_32" data-name="Path 32" d="M368.03,135.406h3.3v29.652h-3.3v-9.519a12.194,12.194,0,0,1-21.069-8.374V135.406h3.3v11.759a8.886,8.886,0,1,0,17.772,0Z" transform="translate(-346.961 -58.588)" fill="#ff003d"/>
    <path id="Path_33" data-name="Path 33" d="M468.973,176.111,451.6,193.438h17.462v3.3H446.969v-3.3L464.3,176.111H446.88v-3.3h22.093Z" transform="translate(-358.192 -62.793)" fill="#ff003d"/>
  </g>
</svg>
